%TF.GenerationSoftware,KiCad,Pcbnew,6.0.4-6f826c9f35~116~ubuntu18.04.1*%
%TF.CreationDate,2022-10-07T10:59:38+03:00*%
%TF.ProjectId,40pin_1.27mm_to_20pin_2.54mm,34307069-6e5f-4312-9e32-376d6d5f746f,rev?*%
%TF.SameCoordinates,Original*%
%TF.FileFunction,Copper,L1,Top*%
%TF.FilePolarity,Positive*%
%FSLAX46Y46*%
G04 Gerber Fmt 4.6, Leading zero omitted, Abs format (unit mm)*
G04 Created by KiCad (PCBNEW 6.0.4-6f826c9f35~116~ubuntu18.04.1) date 2022-10-07 10:59:38*
%MOMM*%
%LPD*%
G01*
G04 APERTURE LIST*
%TA.AperFunction,SMDPad,CuDef*%
%ADD10R,2.100000X0.750000*%
%TD*%
%TA.AperFunction,ViaPad*%
%ADD11C,0.800000*%
%TD*%
%TA.AperFunction,Conductor*%
%ADD12C,0.250000*%
%TD*%
G04 APERTURE END LIST*
D10*
%TO.P,J1,1,Pin_1*%
%TO.N,11*%
X1800000Y12065000D03*
%TO.P,J1,2,Pin_2*%
%TO.N,2*%
X-1800000Y12065000D03*
%TO.P,J1,3,Pin_3*%
%TO.N,11*%
X1800000Y10795000D03*
%TO.P,J1,4,Pin_4*%
%TO.N,4*%
X-1800000Y10795000D03*
%TO.P,J1,5,Pin_5*%
%TO.N,11*%
X1800000Y9525000D03*
%TO.P,J1,6,Pin_6*%
%TO.N,6*%
X-1800000Y9525000D03*
%TO.P,J1,7,Pin_7*%
%TO.N,11*%
X1800000Y8255000D03*
%TO.P,J1,8,Pin_8*%
%TO.N,8*%
X-1800000Y8255000D03*
%TO.P,J1,9,Pin_9*%
%TO.N,11*%
X1800000Y6985000D03*
%TO.P,J1,10,Pin_10*%
%TO.N,10*%
X-1800000Y6985000D03*
%TO.P,J1,11,Pin_11*%
%TO.N,11*%
X1800000Y5715000D03*
%TO.P,J1,12,Pin_12*%
%TO.N,12*%
X-1800000Y5715000D03*
%TO.P,J1,13,Pin_13*%
%TO.N,11*%
X1800000Y4445000D03*
%TO.P,J1,14,Pin_14*%
%TO.N,14*%
X-1800000Y4445000D03*
%TO.P,J1,15,Pin_15*%
%TO.N,11*%
X1800000Y3175000D03*
%TO.P,J1,16,Pin_16*%
%TO.N,16*%
X-1800000Y3175000D03*
%TO.P,J1,17,Pin_17*%
%TO.N,11*%
X1800000Y1905000D03*
%TO.P,J1,18,Pin_18*%
%TO.N,18*%
X-1800000Y1905000D03*
%TO.P,J1,19,Pin_19*%
%TO.N,19*%
X1800000Y635000D03*
%TO.P,J1,20,Pin_20*%
%TO.N,20*%
X-1800000Y635000D03*
%TO.P,J1,21,Pin_21*%
%TO.N,11*%
X1800000Y-635000D03*
%TO.P,J1,22,Pin_22*%
%TO.N,2*%
X-1800000Y-635000D03*
%TO.P,J1,23,Pin_23*%
%TO.N,11*%
X1800000Y-1905000D03*
%TO.P,J1,24,Pin_24*%
%TO.N,24*%
X-1800000Y-1905000D03*
%TO.P,J1,25,Pin_25*%
%TO.N,11*%
X1800000Y-3175000D03*
%TO.P,J1,26,Pin_26*%
%TO.N,26*%
X-1800000Y-3175000D03*
%TO.P,J1,27,Pin_27*%
%TO.N,11*%
X1800000Y-4445000D03*
%TO.P,J1,28,Pin_28*%
%TO.N,28*%
X-1800000Y-4445000D03*
%TO.P,J1,29,Pin_29*%
%TO.N,11*%
X1800000Y-5715000D03*
%TO.P,J1,30,Pin_30*%
%TO.N,30*%
X-1800000Y-5715000D03*
%TO.P,J1,31,Pin_31*%
%TO.N,11*%
X1800000Y-6985000D03*
%TO.P,J1,32,Pin_32*%
%TO.N,32*%
X-1800000Y-6985000D03*
%TO.P,J1,33,Pin_33*%
%TO.N,11*%
X1800000Y-8255000D03*
%TO.P,J1,34,Pin_34*%
%TO.N,34*%
X-1800000Y-8255000D03*
%TO.P,J1,35,Pin_35*%
%TO.N,11*%
X1800000Y-9525000D03*
%TO.P,J1,36,Pin_36*%
%TO.N,36*%
X-1800000Y-9525000D03*
%TO.P,J1,37,Pin_37*%
%TO.N,11*%
X1800000Y-10795000D03*
%TO.P,J1,38,Pin_38*%
%TO.N,38*%
X-1800000Y-10795000D03*
%TO.P,J1,39,Pin_39*%
%TO.N,19*%
X1800000Y-12065000D03*
%TO.P,J1,40,Pin_40*%
%TO.N,20*%
X-1800000Y-12065000D03*
%TD*%
D11*
%TO.N,20*%
X-3810000Y0D03*
%TO.N,19*%
X0Y0D03*
X1800000Y-12065000D03*
%TO.N,11*%
X1800000Y12065000D03*
%TO.N,20*%
X-1800000Y-12065000D03*
%TO.N,18*%
X0Y1270000D03*
%TO.N,38*%
X0Y-10160000D03*
%TO.N,34*%
X0Y-7620000D03*
%TO.N,30*%
X0Y-5080000D03*
%TO.N,2*%
X0Y11430000D03*
%TO.N,6*%
X0Y8890000D03*
%TO.N,10*%
X0Y6350000D03*
%TO.N,14*%
X0Y3810000D03*
%TO.N,26*%
X0Y-2540000D03*
%TO.N,36*%
X0Y-8890000D03*
%TO.N,32*%
X0Y-6350000D03*
%TO.N,28*%
X0Y-3810000D03*
%TO.N,24*%
X0Y-1270000D03*
%TO.N,16*%
X0Y2540000D03*
%TO.N,12*%
X0Y5080000D03*
%TO.N,8*%
X0Y7620000D03*
%TO.N,4*%
X0Y10160000D03*
%TD*%
D12*
%TO.N,2*%
X-1800000Y-635000D02*
X-2750592Y-635000D01*
X-2750592Y-635000D02*
X-2840103Y-724511D01*
X-2604022Y12065000D02*
X-1800000Y12065000D01*
X-2840103Y-724511D02*
X-4110103Y-724511D01*
X-4110103Y-724511D02*
X-4534511Y-300103D01*
X-4534511Y-300103D02*
X-4534511Y10134511D01*
X-4534511Y10134511D02*
X-2604022Y12065000D01*
%TO.N,20*%
X-3175000Y635000D02*
X-3810000Y0D01*
X-1800000Y635000D02*
X-3175000Y635000D01*
%TO.N,19*%
X635000Y635000D02*
X0Y0D01*
X1800000Y635000D02*
X635000Y635000D01*
%TO.N,18*%
X-635000Y1905000D02*
X0Y1270000D01*
X-1800000Y1905000D02*
X-635000Y1905000D01*
%TO.N,38*%
X0Y-10160000D02*
X-635000Y-10795000D01*
X-635000Y-10795000D02*
X-1800000Y-10795000D01*
%TO.N,34*%
X-635000Y-8255000D02*
X-1800000Y-8255000D01*
X0Y-7620000D02*
X-635000Y-8255000D01*
%TO.N,30*%
X0Y-5080000D02*
X-635000Y-5715000D01*
X-635000Y-5715000D02*
X-1800000Y-5715000D01*
%TO.N,2*%
X0Y11430000D02*
X-635000Y12065000D01*
X-635000Y12065000D02*
X-1800000Y12065000D01*
%TO.N,6*%
X-635000Y9525000D02*
X-1800000Y9525000D01*
X0Y8890000D02*
X-635000Y9525000D01*
%TO.N,10*%
X0Y6350000D02*
X-635000Y6985000D01*
X-635000Y6985000D02*
X-1800000Y6985000D01*
%TO.N,14*%
X0Y3810000D02*
X-635000Y4445000D01*
X-635000Y4445000D02*
X-1800000Y4445000D01*
%TO.N,26*%
X-635000Y-3175000D02*
X0Y-2540000D01*
X-1800000Y-3175000D02*
X-635000Y-3175000D01*
%TO.N,36*%
X-635000Y-9525000D02*
X0Y-8890000D01*
X-1800000Y-9525000D02*
X-635000Y-9525000D01*
%TO.N,32*%
X-635000Y-6985000D02*
X0Y-6350000D01*
X-1800000Y-6985000D02*
X-635000Y-6985000D01*
%TO.N,28*%
X-635000Y-4445000D02*
X0Y-3810000D01*
X-1800000Y-4445000D02*
X-635000Y-4445000D01*
%TO.N,11*%
X1800000Y-635000D02*
X2475000Y-635000D01*
X2475000Y-635000D02*
X3175000Y65000D01*
X3175000Y65000D02*
X3175000Y1334022D01*
X2604022Y1905000D02*
X1800000Y1905000D01*
X3175000Y1334022D02*
X2604022Y1905000D01*
X1800000Y-635000D02*
X1800000Y-10795000D01*
%TO.N,24*%
X-635000Y-1905000D02*
X0Y-1270000D01*
X-1800000Y-1905000D02*
X-635000Y-1905000D01*
%TO.N,16*%
X-635000Y3175000D02*
X0Y2540000D01*
X-1800000Y3175000D02*
X-635000Y3175000D01*
%TO.N,12*%
X-635000Y5715000D02*
X0Y5080000D01*
X-1800000Y5715000D02*
X-635000Y5715000D01*
%TO.N,8*%
X-635000Y8255000D02*
X0Y7620000D01*
X-1800000Y8255000D02*
X-635000Y8255000D01*
%TO.N,4*%
X-635000Y10795000D02*
X0Y10160000D01*
X-1800000Y10795000D02*
X-635000Y10795000D01*
%TO.N,11*%
X1800000Y12065000D02*
X1800000Y1905000D01*
%TD*%
M02*
