%TF.GenerationSoftware,KiCad,Pcbnew,6.0.4-6f826c9f35~116~ubuntu18.04.1*%
%TF.CreationDate,2022-10-07T10:59:38+03:00*%
%TF.ProjectId,40pin_1.27mm_to_20pin_2.54mm,34307069-6e5f-4312-9e32-376d6d5f746f,rev?*%
%TF.SameCoordinates,Original*%
%TF.FileFunction,Paste,Top*%
%TF.FilePolarity,Positive*%
%FSLAX46Y46*%
G04 Gerber Fmt 4.6, Leading zero omitted, Abs format (unit mm)*
G04 Created by KiCad (PCBNEW 6.0.4-6f826c9f35~116~ubuntu18.04.1) date 2022-10-07 10:59:38*
%MOMM*%
%LPD*%
G01*
G04 APERTURE LIST*
%ADD10R,2.100000X0.750000*%
G04 APERTURE END LIST*
D10*
%TO.C,J1*%
X1800000Y12065000D03*
X-1800000Y12065000D03*
X1800000Y10795000D03*
X-1800000Y10795000D03*
X1800000Y9525000D03*
X-1800000Y9525000D03*
X1800000Y8255000D03*
X-1800000Y8255000D03*
X1800000Y6985000D03*
X-1800000Y6985000D03*
X1800000Y5715000D03*
X-1800000Y5715000D03*
X1800000Y4445000D03*
X-1800000Y4445000D03*
X1800000Y3175000D03*
X-1800000Y3175000D03*
X1800000Y1905000D03*
X-1800000Y1905000D03*
X1800000Y635000D03*
X-1800000Y635000D03*
X1800000Y-635000D03*
X-1800000Y-635000D03*
X1800000Y-1905000D03*
X-1800000Y-1905000D03*
X1800000Y-3175000D03*
X-1800000Y-3175000D03*
X1800000Y-4445000D03*
X-1800000Y-4445000D03*
X1800000Y-5715000D03*
X-1800000Y-5715000D03*
X1800000Y-6985000D03*
X-1800000Y-6985000D03*
X1800000Y-8255000D03*
X-1800000Y-8255000D03*
X1800000Y-9525000D03*
X-1800000Y-9525000D03*
X1800000Y-10795000D03*
X-1800000Y-10795000D03*
X1800000Y-12065000D03*
X-1800000Y-12065000D03*
%TD*%
M02*
